<svg width="150" height="150" viewBox="0 0 150 150" fill="none" xmlns="http://www.w3.org/2000/svg">
<path d="M91.1357 0.052179C92.5125 -0.00149932 93.9129 0.0665534 95.2923 0.0640935C96.3706 0.0621843 97.7233 -0.106121 98.7631 0.110539C99.1804 0.197536 99.9038 0.677392 100.218 0.956413C100.96 1.61544 100.946 3.54779 100.968 4.48068C101.088 9.61529 100.965 14.7756 100.969 19.9129L100.975 26.3847C100.976 27.5642 101.035 28.7775 100.942 29.9535C100.914 30.312 100.822 30.6362 100.685 30.9692C100.04 32.5381 99.2435 33.6671 98.2608 35.0447C96.8823 36.9767 95.3912 38.8137 93.9653 40.713L81.7097 56.7196L33.054 120.286L16.8513 141.433C15.6005 143.045 14.4432 144.72 13.1858 146.331C12.6503 147.017 12.147 147.731 11.5182 148.345C11.0957 148.757 10.2501 149.579 9.63361 149.586C9.53136 149.699 9.42003 149.801 9.30809 149.905C8.70323 150.027 2.6673 150.04 1.96422 149.894C1.28199 149.753 0.425229 149.025 0.0631611 148.471C-0.0535812 147.106 0.0271165 145.705 0.0278711 144.333L0.029535 136.892L0.0298446 125.235C0.0291675 123.284 -0.0313124 121.32 0.0302317 119.372C0.0433493 118.956 0.0253753 118.328 0.249902 117.962C1.04543 116.669 1.90367 115.416 2.82464 114.201C3.28137 113.603 3.79089 113.043 4.24466 112.443L12.017 102.332C20.1506 91.5703 28.3642 80.8635 36.6577 70.2121L70.5309 25.9959L83.5618 8.89414C84.0525 8.26153 84.5917 7.66512 85.0858 7.03552C86.4366 5.31385 87.6335 3.48598 89.0414 1.80372C89.754 0.952264 90.5588 0.743664 91.0882 0.112687C91.1046 0.0930071 91.1199 0.0723543 91.1357 0.052179Z" fill="#7E73FD"/>
<path d="M111.549 0.018522L137.518 0.0919524L144.691 0.0861869C145.761 0.0778504 147.006 -0.0941856 148.05 0.0722865C148.624 0.163951 149.203 0.709107 149.529 1.159L149.914 1.68095C150.083 2.90461 149.955 4.16158 149.944 5.39355L149.935 11.0462V33.3034L149.937 108.955L149.936 138.09C149.936 139.615 150.104 147.544 149.85 148.248C149.832 148.299 149.811 148.336 149.781 148.382C149.765 148.409 149.746 148.434 149.729 148.461C149.365 149.018 148.851 149.745 148.154 149.913C147.665 150.031 139.484 150.015 138.452 149.948C138.268 149.936 138.181 149.909 138.024 149.823C137.99 149.841 137.958 149.861 137.924 149.878C137.716 149.978 114.54 150.026 112.405 149.959C112.193 149.952 112.034 149.927 111.835 149.849C111.809 149.844 111.781 149.844 111.756 149.834C111.213 149.613 110.775 148.951 110.588 148.438C110.339 147.755 110.289 146.897 110.252 146.178C110.181 144.788 110.236 143.374 110.237 141.98L110.243 134.106L110.237 125.923C110.236 124.478 110.184 123.015 110.254 121.573C110.284 120.953 110.321 120.11 110.624 119.551C110.85 119.134 111.221 118.868 111.681 118.73C112.282 118.549 112.925 118.592 113.547 118.597C115.154 118.611 117.015 118.828 118.563 118.367C119.388 118.121 120.139 117.708 120.537 116.932C120.925 116.176 121.021 115.181 121.04 114.346C121.154 109.355 121.035 104.333 121.035 99.3391L121.038 68.6867L121.039 46.2711L121.039 38.927C121.039 37.5952 121.081 36.2476 121.021 34.9176C121 34.4716 120.872 34.0503 120.716 33.6335C120.498 33.0542 120.248 32.5738 119.708 32.2143C118.379 31.3292 115.221 31.7073 113.574 31.5455C112.56 31.446 111.709 31.1803 110.791 30.7607C110.678 30.4816 110.574 30.2038 110.514 29.9093C110.417 29.4438 110.416 28.9431 110.377 28.4693C110.219 26.5835 110.237 24.7175 110.237 22.827L110.242 12.4746L110.236 6.16886C110.233 4.90751 110.129 3.56196 110.322 2.31696C110.475 1.33423 110.817 1.09622 111.324 0.329542C111.396 0.221186 111.469 0.12069 111.549 0.018522Z" fill="#7E73FD"/>
</svg>